name Walk3.mot
datacolumns 19
datarows 17
range 2.08500000 2.16500000
endheader

                time	   L_ground_force_vx	   L_ground_force_vy	   L_ground_force_vz	   L_ground_force_px	   L_ground_force_py	   L_ground_force_pz	   R_ground_force_vx	   R_ground_force_vy	   R_ground_force_vz	   R_ground_force_px	   R_ground_force_py	   R_ground_force_pz	   L_ground_torque_x	   L_ground_torque_y	   L_ground_torque_z	   R_ground_torque_x	   R_ground_torque_y	   R_ground_torque_z	
          2.08500000	         -0.00000000	         -0.00000000	          0.00000000	         -0.00000000	          0.00000000	         -0.00000000	        -30.88834968	        551.96926578	        -42.32090268	          0.20658922	          0.00000000	          0.11296600	          0.00000000	          0.00000000	          0.00000000	          0.00000000	          2.02760578	          0.00000000	
          2.09000000	         -0.00000000	         -0.00000000	          0.00000000	          0.00000000	          0.00000000	          0.00000000	        -28.45328155	        545.21349578	        -41.78290815	          0.20843222	          0.00000000	          0.11364642	          0.00000000	         -0.00000000	          0.00000000	          0.00000000	          1.93284629	          0.00000000	
          2.09500000	         -0.00000000	         -0.00000000	          0.00000000	          0.00000000	          0.00000000	          0.00000000	        -26.28075654	        539.13724856	        -41.34028671	          0.21040379	          0.00000000	          0.11426407	          0.00000000	         -0.00000000	          0.00000000	          0.00000000	          1.82741064	          0.00000000	
          2.10000000	          0.00000000	          0.00000000	         -0.00000000	          0.00000000	          0.00000000	          0.00000000	        -24.22345722	        533.67435659	        -40.95967554	          0.21212106	          0.00000000	          0.11458431	          0.00000000	          0.00000000	          0.00000000	          0.00000000	          1.76919697	          0.00000000	
          2.10500000	          0.00000000	          0.00000000	         -0.00000000	         -0.00000000	          0.00000000	         -0.00000000	        -22.23829580	        528.72634551	        -40.50006815	          0.21369818	          0.00000000	          0.11491541	          0.00000000	          0.00000000	          0.00000000	          0.00000000	          1.74199827	          0.00000000	
          2.11000000	          0.00000000	          0.00000000	         -0.00000000	         -0.00000000	          0.00000000	         -0.00000000	        -20.29428707	        524.47100482	        -39.89802681	          0.21535776	          0.00000000	          0.11558445	          0.00000000	          0.00000000	          0.00000000	          0.00000000	          1.72015843	          0.00000000	
          2.11500000	         -0.00000000	         -0.00000000	          0.00000000	          0.00000000	          0.00000000	          0.00000000	        -18.50918849	        520.62935123	        -39.21562781	          0.21706556	          0.00000000	          0.11620707	          0.00000000	         -0.00000000	          0.00000000	          0.00000000	          1.66243792	          0.00000000	
          2.12000000	         -0.00000000	         -0.00000000	          0.00000000	          0.00000000	          0.00000000	          0.00000000	        -16.80361054	        516.90617298	        -38.54402399	          0.21854341	          0.00000000	          0.11648764	          0.00000000	         -0.00000000	          0.00000000	          0.00000000	          1.60572141	          0.00000000	
          2.12500000	         -0.00000000	         -0.00000000	          0.00000000	          0.00000000	          0.00000000	          0.00000000	        -15.06423366	        513.57715744	        -37.88488147	          0.21965873	          0.00000000	          0.11677664	          0.00000000	         -0.00000000	          0.00000000	          0.00000000	          1.57931957	          0.00000000	
          2.13000000	          0.00000000	          0.00000000	         -0.00000000	         -0.00000000	          0.00000000	         -0.00000000	        -13.30045069	        510.85700899	        -37.36329483	          0.22094715	          0.00000000	          0.11718020	          0.00000000	          0.00000000	          0.00000000	          0.00000000	          1.56034573	          0.00000000	
          2.13500000	          0.00000000	          0.00000000	         -0.00000000	         -0.00000000	          0.00000000	         -0.00000000	        -11.50911656	        508.70393106	        -37.05056313	          0.22251874	          0.00000000	          0.11751949	          0.00000000	          0.00000000	          0.00000000	          0.00000000	          1.55534903	          0.00000000	
          2.14000000	         -0.00000000	          0.00000000	         -0.00000000	         -0.00000000	          0.00000000	         -0.00000000	         -9.75112971	        507.16465302	        -36.88296441	          0.22396451	          0.00000000	          0.11787546	          0.00000000	          0.00000000	          0.00000000	          0.00000000	          1.54585268	          0.00000000	
          2.14500000	         -0.00000000	         -0.00000000	          0.00000000	          0.00000000	          0.00000000	          0.00000000	         -8.00956374	        506.01102106	        -36.81739430	          0.22521644	          0.00000000	          0.11809829	          0.00000000	         -0.00000000	          0.00000000	          0.00000000	          1.48272092	          0.00000000	
          2.15000000	         -0.00000000	         -0.00000000	          0.00000000	          0.00000000	          0.00000000	          0.00000000	         -6.19996975	        505.13632736	        -36.87419852	          0.22639106	          0.00000000	          0.11822246	          0.00000000	         -0.00000000	          0.00000000	          0.00000000	          1.38841997	          0.00000000	
          2.15500000	          0.00000000	          0.00000000	         -0.00000000	          0.00000000	          0.00000000	          0.00000000	         -4.35662358	        504.83463829	        -36.97273484	          0.22747144	          0.00000000	          0.11849399	          0.00000000	          0.00000000	          0.00000000	          0.00000000	          1.29613298	          0.00000000	
          2.16000000	          0.00000000	          0.00000000	         -0.00000000	         -0.00000000	          0.00000000	         -0.00000000	         -2.56657062	        505.14134049	        -37.15397373	          0.22879355	          0.00000000	          0.11869120	          0.00000000	          0.00000000	          0.00000000	          0.00000000	          1.21052213	          0.00000000	
          2.16500000	          0.00000000	          0.00000000	         -0.00000000	         -0.00000000	          0.00000000	         -0.00000000	         -0.87586223	        505.71736118	        -37.35950758	          0.22976144	          0.00000000	          0.11873891	          0.00000000	          0.00000000	          0.00000000	          0.00000000	          1.18185437	          0.00000000	
